<svg width="358" height="1064" viewBox="0 0 358 1064" fill="none" xmlns="http://www.w3.org/2000/svg">
<mask id="mask0_36_9467" style="mask-type:alpha" maskUnits="userSpaceOnUse" x="-175" y="187" width="470" height="877">
<path d="M294.283 792.376H125.381L136.524 832.129C194.962 853.491 226.915 853.496 281.967 832.129L294.283 792.376Z" fill="url(#paint0_linear_36_9467)"/>
<path d="M125.381 790.483C125.381 811.741 163.191 828.974 209.832 828.974C256.473 828.974 294.283 811.741 294.283 790.483C294.283 769.225 256.473 751.993 209.832 751.993C163.191 751.993 125.381 769.225 125.381 790.483Z" fill="url(#paint1_radial_36_9467)"/>
<path d="M270.009 776.91H149.655L157.595 801.438C199.236 814.619 222.005 814.622 261.234 801.438L270.009 776.91Z" fill="url(#paint2_linear_36_9467)"/>
<path d="M149.655 775.742C149.655 788.859 176.597 799.492 209.832 799.492C243.067 799.492 270.009 788.859 270.009 775.742C270.009 762.626 243.067 751.993 209.832 751.993C176.597 751.993 149.655 762.626 149.655 775.742Z" fill="url(#paint3_radial_36_9467)"/>
<path d="M263.436 202.654C235.486 191.769 219.954 189.095 192.133 190.89V190.378L156.229 206.746C156.229 206.746 170.388 225.671 170.388 247.154V763.756C173.585 778.229 178.834 783.545 192.133 789.842V790.353C223.517 798.953 241.185 792.911 248.77 782.17C248.771 781.68 248.772 268.621 251.805 237.435C254.839 206.235 263.436 202.654 263.436 202.654Z" fill="url(#paint4_linear_36_9467)"/>
<path d="M263.436 202.654C235.486 191.769 219.954 189.095 192.133 190.89V790.353C223.517 798.953 241.185 792.911 248.77 782.17C248.77 782.17 248.77 268.636 251.805 237.435C254.839 206.235 263.436 202.654 263.436 202.654Z" fill="url(#paint5_linear_36_9467)"/>
<path d="M192.133 190.378L156.229 206.746C156.229 206.746 170.388 225.671 170.388 247.154C170.388 268.636 170.388 763.756 170.388 763.756C173.585 778.229 178.834 783.545 192.133 789.842V190.378Z" fill="url(#paint6_linear_36_9467)"/>
<path d="M211.349 701.866L192.133 593.431V799.049H218.429L211.349 701.866Z" fill="url(#paint7_linear_36_9467)"/>
<path d="M259.39 197.54L213.878 187.31L239.668 296.257L250.288 393.439L259.39 197.54Z" fill="#2F1773"/>
<path d="M199.213 325.923L192.133 291.142L187.076 325.923L192.133 398.554L199.213 325.923Z" fill="url(#paint8_linear_36_9467)"/>
<path d="M192.133 655.321L182.525 695.729L171.4 783.704L192.133 798.538V655.321Z" fill="url(#paint9_linear_36_9467)"/>
<path d="M194.156 865.007H25.2543L36.3971 904.76C94.8353 926.122 126.788 926.127 181.84 904.76L194.156 865.007Z" fill="url(#paint10_linear_36_9467)"/>
<path d="M25.2543 863.114C25.2543 884.372 63.0641 901.605 109.705 901.605C156.346 901.605 194.156 884.372 194.156 863.114C194.156 841.857 156.346 824.624 109.705 824.624C63.0641 824.624 25.2543 841.857 25.2543 863.114Z" fill="url(#paint11_radial_36_9467)"/>
<path d="M169.882 849.541H49.5275L57.4676 874.069C99.1092 887.25 121.878 887.253 161.106 874.069L169.882 849.541Z" fill="url(#paint12_linear_36_9467)"/>
<path d="M49.5275 848.373C49.5275 861.49 76.4699 872.123 109.705 872.123C142.94 872.123 169.882 861.49 169.882 848.373C169.882 835.257 142.94 824.624 109.705 824.624C76.4699 824.624 49.5275 835.257 49.5275 848.373Z" fill="url(#paint13_radial_36_9467)"/>
<path d="M163.308 275.285C135.359 264.4 119.827 261.726 92.0058 263.521V263.01L56.1016 279.377C56.1016 279.377 70.2608 298.302 70.261 319.785V836.387C73.4576 850.861 78.7064 856.176 92.0058 862.473V862.985C123.39 871.584 141.058 865.542 148.643 854.801C148.643 854.311 148.645 341.252 151.678 310.067C154.712 278.866 163.308 275.285 163.308 275.285Z" fill="url(#paint14_linear_36_9467)"/>
<path d="M163.308 275.285C135.359 264.4 119.827 261.726 92.0058 263.521V862.985C123.39 871.584 141.058 865.542 148.643 854.801C148.643 854.801 148.643 341.267 151.678 310.067C154.712 278.866 163.308 275.285 163.308 275.285Z" fill="url(#paint15_linear_36_9467)"/>
<path d="M92.0058 263.01L56.1016 279.377C56.1016 279.377 70.2608 298.302 70.261 319.785C70.261 341.267 70.261 836.387 70.261 836.387C73.4576 850.861 78.7064 856.176 92.0058 862.473V263.01Z" fill="url(#paint16_linear_36_9467)"/>
<path d="M111.222 774.498L92.0058 666.062V871.68H118.302L111.222 774.498Z" fill="url(#paint17_linear_36_9467)"/>
<path d="M159.263 270.171L113.751 259.941L139.541 368.888L150.16 466.071L159.263 270.171Z" fill="#2F1773"/>
<path d="M99.0855 398.554L92.0058 363.773L86.9489 398.554L92.0058 471.186L99.0855 398.554Z" fill="url(#paint18_linear_36_9467)"/>
<path d="M92.0058 727.952L82.3976 768.36L71.2724 856.336L92.0058 871.169V727.952Z" fill="url(#paint19_linear_36_9467)"/>
<path d="M94.0285 936.616H-74.8729L-63.7301 976.368C-5.29187 997.73 26.6612 997.735 81.7127 976.368L94.0285 936.616Z" fill="url(#paint20_linear_36_9467)"/>
<path d="M-74.8729 934.723C-74.8729 955.98 -37.063 973.213 9.5778 973.213C56.2186 973.213 94.0285 955.98 94.0285 934.723C94.0285 913.465 56.2186 896.232 9.5778 896.232C-37.063 896.232 -74.8729 913.465 -74.8729 934.723Z" fill="url(#paint21_radial_36_9467)"/>
<path d="M69.7552 921.15H-50.5996L-42.6595 945.678C-1.01796 958.858 21.751 958.862 60.9794 945.678L69.7552 921.15Z" fill="url(#paint22_linear_36_9467)"/>
<path d="M-50.5996 919.982C-50.5996 933.098 -23.6573 943.731 9.5778 943.731C42.8129 943.731 69.7552 933.098 69.7552 919.982C69.7552 906.865 42.8129 896.232 9.5778 896.232C-23.6573 896.232 -50.5996 906.865 -50.5996 919.982Z" fill="url(#paint23_radial_36_9467)"/>
<path d="M63.1813 346.894C35.2322 336.008 19.6995 333.334 -8.12135 335.129V334.618L-44.0255 350.986C-44.0255 350.986 -29.8663 369.911 -29.8661 391.393V907.995C-26.6695 922.469 -21.4208 927.784 -8.12135 934.081V934.593C23.2627 943.192 40.9308 937.15 48.5162 926.409C48.5162 925.919 48.5177 412.861 51.5504 381.675C54.5846 350.474 63.1813 346.894 63.1813 346.894Z" fill="url(#paint24_linear_36_9467)"/>
<path d="M63.1813 346.894C35.2322 336.008 19.6995 333.334 -8.12135 335.129V934.593C23.2627 943.192 40.9308 937.15 48.5162 926.409C48.5162 926.409 48.5162 412.876 51.5504 381.675C54.5846 350.474 63.1813 346.894 63.1813 346.894Z" fill="url(#paint25_linear_36_9467)"/>
<path d="M-8.12135 334.618L-44.0255 350.986C-44.0255 350.986 -29.8663 369.911 -29.8661 391.393C-29.8661 412.876 -29.8661 907.995 -29.8661 907.995C-26.6695 922.469 -21.4208 927.784 -8.12135 934.081V334.618Z" fill="url(#paint26_linear_36_9467)"/>
<path d="M11.095 846.106L-8.12135 737.671V943.288H18.1747L11.095 846.106Z" fill="url(#paint27_linear_36_9467)"/>
<path d="M59.1358 341.779L13.6234 331.549L39.4138 440.496L50.0333 537.679L59.1358 341.779Z" fill="#2F1773"/>
<path d="M-1.04166 470.163L-8.12135 435.381L-13.1783 470.163L-8.12135 542.794L-1.04166 470.163Z" fill="url(#paint28_linear_36_9467)"/>
<path d="M-8.12138 799.561L-17.7295 839.968L-28.8548 927.944L-8.12138 942.777V799.561Z" fill="url(#paint29_linear_36_9467)"/>
<path d="M-6.09868 1008.22H-175L-163.857 1047.98C-105.419 1069.34 -73.466 1069.34 -18.4144 1047.98L-6.09868 1008.22Z" fill="url(#paint30_linear_36_9467)"/>
<path d="M-175 1006.33C-175 1027.59 -137.19 1044.82 -90.5493 1044.82C-43.9085 1044.82 -6.09868 1027.59 -6.09868 1006.33C-6.09868 985.073 -43.9085 967.84 -90.5493 967.84C-137.19 967.84 -175 985.073 -175 1006.33Z" fill="url(#paint31_radial_36_9467)"/>
<path d="M-30.3719 992.758H-150.727L-142.787 1017.29C-101.145 1030.47 -78.3762 1030.47 -39.1478 1017.29L-30.3719 992.758Z" fill="url(#paint32_linear_36_9467)"/>
<path d="M-150.727 991.59C-150.727 1004.71 -123.784 1015.34 -90.5493 1015.34C-57.3143 1015.34 -30.3719 1004.71 -30.3719 991.59C-30.3719 978.473 -57.3143 967.84 -90.5493 967.84C-123.784 967.84 -150.727 978.473 -150.727 991.59Z" fill="url(#paint33_radial_36_9467)"/>
<path d="M-36.9458 418.502C-64.895 407.617 -80.4277 404.942 -108.248 406.738V406.226L-144.153 422.594C-144.153 422.594 -129.993 441.519 -129.993 463.001V979.604C-126.797 994.077 -121.548 999.392 -108.248 1005.69V1006.2C-76.8644 1014.8 -59.1963 1008.76 -51.6109 998.017C-51.6109 997.527 -51.6095 484.469 -48.5768 453.283C-45.5426 422.083 -36.9458 418.502 -36.9458 418.502Z" fill="url(#paint34_linear_36_9467)"/>
<path d="M-36.9458 418.502C-64.895 407.617 -80.4277 404.942 -108.248 406.738V1006.2C-76.8644 1014.8 -59.1963 1008.76 -51.6109 998.017C-51.6109 998.017 -51.6109 484.484 -48.5768 453.283C-45.5426 422.083 -36.9458 418.502 -36.9458 418.502Z" fill="url(#paint35_linear_36_9467)"/>
<path d="M-108.248 406.226L-144.153 422.594C-144.153 422.594 -129.993 441.519 -129.993 463.001C-129.993 484.484 -129.993 979.604 -129.993 979.604C-126.797 994.077 -121.548 999.392 -108.248 1005.69V406.226Z" fill="url(#paint36_linear_36_9467)"/>
<path d="M-89.0322 917.714L-108.249 809.279V1014.9H-81.9525L-89.0322 917.714Z" fill="url(#paint37_linear_36_9467)"/>
<path d="M-40.9914 413.387L-86.5037 403.158L-60.7134 512.105L-50.0938 609.287L-40.9914 413.387Z" fill="#2F1773"/>
<path d="M-101.169 541.771L-108.248 506.99L-113.305 541.771L-108.248 614.402L-101.169 541.771Z" fill="url(#paint38_linear_36_9467)"/>
<path d="M-108.249 871.169L-117.857 911.577L-128.982 999.552L-108.249 1014.39V871.169Z" fill="url(#paint39_linear_36_9467)"/>
</mask>
<g mask="url(#mask0_36_9467)">
<path d="M294.283 793.399H125.381L136.524 833.152C194.962 854.514 226.915 854.519 281.967 833.152L294.283 793.399Z" fill="url(#paint40_linear_36_9467)"/>
<ellipse cx="84.4507" cy="38.4907" rx="84.4507" ry="38.4907" transform="matrix(-1 0 0 1 294.283 753.016)" fill="url(#paint41_radial_36_9467)"/>
<path d="M270.01 777.933H149.655L157.595 802.461C199.236 815.642 222.005 815.645 261.234 802.461L270.01 777.933Z" fill="url(#paint42_linear_36_9467)"/>
<ellipse cx="60.1774" cy="23.7496" rx="60.1774" ry="23.7496" transform="matrix(-1 0 0 1 270.01 753.016)" fill="url(#paint43_radial_36_9467)"/>
<mask id="mask1_36_9467" style="mask-type:alpha" maskUnits="userSpaceOnUse" x="156" y="191" width="108" height="605">
<path d="M263.436 203.677C235.486 192.792 219.954 190.118 192.133 191.913V191.402L156.229 207.769C156.229 207.769 170.388 226.694 170.388 248.177V764.779C173.585 779.252 178.834 784.568 192.133 790.865V791.376C223.517 799.976 241.185 793.934 248.771 783.193C248.771 782.703 248.772 269.644 251.805 238.458C254.839 207.258 263.436 203.677 263.436 203.677Z" fill="white"/>
</mask>
<g mask="url(#mask1_36_9467)">
<path d="M263.436 203.678C235.486 192.792 219.954 190.118 192.133 191.913V791.377C223.517 799.976 241.185 793.934 248.771 783.193C248.771 783.193 248.771 269.66 251.805 238.459C254.839 207.258 263.436 203.678 263.436 203.678Z" fill="url(#paint44_linear_36_9467)"/>
<path d="M192.133 191.402L156.229 207.77C156.229 207.77 170.388 226.695 170.388 248.177C170.388 269.66 170.388 764.779 170.388 764.779C173.585 779.253 178.833 784.568 192.133 790.865V191.402Z" fill="url(#paint45_linear_36_9467)"/>
<path d="M211.349 702.889L192.133 594.454V800.072H218.429L211.349 702.889Z" fill="url(#paint46_linear_36_9467)"/>
<path d="M259.39 198.563L213.878 188.333L239.668 297.28L250.288 394.462L259.39 198.563Z" fill="url(#paint47_linear_36_9467)"/>
<path d="M199.213 326.946L192.133 292.165L187.076 326.946L192.133 399.577L199.213 326.946Z" fill="url(#paint48_linear_36_9467)"/>
<path d="M192.133 656.344L182.525 696.752L171.399 784.728L192.133 799.561V656.344Z" fill="url(#paint49_linear_36_9467)"/>
<g opacity="0.16" style="mix-blend-mode:plus-lighter">
<path d="M221.655 403.8C218.382 442.258 215.505 498.463 199.718 513.636C216.023 542.651 219.906 558.284 221.878 641.593L221.969 645.6C223.863 559.281 229.173 527.351 245.736 497.876C229.44 482.213 225.284 439.623 221.969 400.086L221.655 403.8Z" fill="url(#paint50_linear_36_9467)"/>
</g>
</g>
<path d="M194.156 865.007H25.2543L36.3971 904.76C94.8353 926.122 126.788 926.127 181.84 904.76L194.156 865.007Z" fill="url(#paint51_linear_36_9467)"/>
<ellipse cx="84.4507" cy="38.4907" rx="84.4507" ry="38.4907" transform="matrix(-1 0 0 1 194.156 824.624)" fill="url(#paint52_radial_36_9467)"/>
<path d="M169.882 849.542H49.5275L57.4676 874.07C99.1091 887.25 121.878 887.254 161.106 874.07L169.882 849.542Z" fill="url(#paint53_linear_36_9467)"/>
<ellipse cx="60.1774" cy="23.7496" rx="60.1774" ry="23.7496" transform="matrix(-1 0 0 1 169.882 824.624)" fill="url(#paint54_radial_36_9467)"/>
<mask id="mask2_36_9467" style="mask-type:alpha" maskUnits="userSpaceOnUse" x="56" y="263" width="108" height="605">
<path d="M163.308 275.286C135.359 264.4 119.827 261.726 92.0058 263.521V263.01L56.1017 279.377C56.1017 279.377 70.2609 298.303 70.261 319.785V836.387C73.4576 850.861 78.7064 856.176 92.0058 862.473V862.985C123.39 871.584 141.058 865.542 148.643 854.801C148.643 854.311 148.645 341.253 151.678 310.067C154.712 278.866 163.308 275.286 163.308 275.286Z" fill="white"/>
</mask>
<g mask="url(#mask2_36_9467)">
<path d="M163.308 275.286C135.359 264.401 119.827 261.726 92.0058 263.522V862.985C123.39 871.584 141.058 865.543 148.643 854.801C148.643 854.801 148.643 341.268 151.678 310.067C154.712 278.866 163.308 275.286 163.308 275.286Z" fill="url(#paint55_linear_36_9467)"/>
<path d="M92.0059 263.01L56.1017 279.378C56.1017 279.378 70.2611 298.303 70.2611 319.785C70.2611 341.268 70.2611 836.388 70.2611 836.388C73.4577 850.861 78.7064 856.176 92.0059 862.474V263.01Z" fill="url(#paint56_linear_36_9467)"/>
<path d="M111.222 774.498L92.0057 666.062V871.68H118.302L111.222 774.498Z" fill="url(#paint57_linear_36_9467)"/>
<path d="M159.263 270.171L113.751 259.941L139.541 368.888L150.16 466.071L159.263 270.171Z" fill="url(#paint58_linear_36_9467)"/>
<path d="M99.0854 398.554L92.0058 363.773L86.9488 398.554L92.0058 471.186L99.0854 398.554Z" fill="url(#paint59_linear_36_9467)"/>
<path d="M92.0059 727.953L82.3977 768.36L71.2725 856.336L92.0059 871.169V727.953Z" fill="url(#paint60_linear_36_9467)"/>
<g opacity="0.16" style="mix-blend-mode:plus-lighter">
<path d="M121.528 475.409C118.255 513.867 115.378 570.071 99.5911 585.245C115.895 614.26 119.779 629.892 121.75 713.202L121.842 717.208C123.736 630.889 129.046 598.959 145.609 569.484C129.313 553.821 125.157 511.231 121.842 471.694L121.528 475.409Z" fill="url(#paint61_linear_36_9467)"/>
</g>
</g>
<path d="M94.0286 936.616H-74.8728L-63.73 976.368C-5.29176 997.73 26.6613 997.735 81.7128 976.368L94.0286 936.616Z" fill="url(#paint62_linear_36_9467)"/>
<ellipse cx="84.4507" cy="38.4907" rx="84.4507" ry="38.4907" transform="matrix(-1 0 0 1 94.0285 896.232)" fill="url(#paint63_radial_36_9467)"/>
<path d="M69.7552 921.15H-50.5996L-42.6595 945.678C-1.01793 958.859 21.751 958.862 60.9794 945.678L69.7552 921.15Z" fill="url(#paint64_linear_36_9467)"/>
<ellipse cx="60.1774" cy="23.7496" rx="60.1774" ry="23.7496" transform="matrix(-1 0 0 1 69.7552 896.232)" fill="url(#paint65_radial_36_9467)"/>
<mask id="mask3_36_9467" style="mask-type:alpha" maskUnits="userSpaceOnUse" x="-45" y="334" width="109" height="605">
<path d="M63.1813 346.894C35.2322 336.008 19.6995 333.334 -8.12132 335.13V334.618L-44.0255 350.986C-44.0255 350.986 -29.8662 369.911 -29.8661 391.393V907.996C-26.6695 922.469 -21.4207 927.784 -8.12132 934.081V934.593C23.2627 943.192 40.9309 937.15 48.5163 926.409C48.5163 925.919 48.5177 412.861 51.5504 381.675C54.5846 350.474 63.1813 346.894 63.1813 346.894Z" fill="white"/>
</mask>
<g mask="url(#mask3_36_9467)">
<path d="M63.1813 346.894C35.2321 336.009 19.6996 333.335 -8.12132 335.13V934.593C23.2627 943.193 40.9309 937.151 48.5162 926.409C48.5162 926.409 48.5162 412.876 51.5504 381.675C54.5846 350.475 63.1813 346.894 63.1813 346.894Z" fill="url(#paint66_linear_36_9467)"/>
<path d="M11.0952 846.106L-8.12115 737.671V943.289H18.1749L11.0952 846.106Z" fill="url(#paint67_linear_36_9467)"/>
<path d="M59.1358 341.779L13.6235 331.55L39.4138 440.496L50.0334 537.679L59.1358 341.779Z" fill="url(#paint68_linear_36_9467)"/>
<g opacity="0.16" style="mix-blend-mode:plus-lighter">
<path d="M21.4012 547.017C18.1282 585.475 15.2513 641.679 -0.535789 656.853C15.7685 685.868 19.6518 701.5 21.6234 784.81L21.7147 788.817C23.609 702.497 28.9191 670.568 45.4822 641.092C29.186 625.429 25.0297 582.839 21.7147 543.303L21.4012 547.017Z" fill="url(#paint69_linear_36_9467)"/>
</g>
</g>
<rect x="-91.0549" y="92.1707" width="413.657" height="1204.04" fill="url(#paint70_linear_36_9467)"/>
</g>
<path d="M358 -49H-167.92L-123.419 402.643L296.306 140.762L358 -49Z" fill="url(#paint71_linear_36_9467)"/>
<mask id="mask4_36_9467" style="mask-type:alpha" maskUnits="userSpaceOnUse" x="-93" y="127" width="394" height="354">
<path d="M300.634 127.975L-82.2308 359.713L-92.3711 480.839L295.439 190.023L300.634 127.975Z" fill="url(#paint72_linear_36_9467)"/>
</mask>
<g mask="url(#mask4_36_9467)">
<path d="M300.634 127.975L-82.2308 359.713L-92.3711 480.839L295.439 190.023L300.634 127.975Z" fill="url(#paint73_linear_36_9467)"/>
<path d="M369.937 76.7517L-12.9274 308.489L-23.0678 429.616L364.743 138.8L369.937 76.7517Z" fill="url(#paint74_linear_36_9467)"/>
</g>
<path d="M-133.027 370.931L-99.1459 370.42L123.359 235.387L-133.027 370.931Z" fill="url(#paint75_linear_36_9467)"/>
<defs>
<linearGradient id="paint0_linear_36_9467" x1="-90.5492" y1="1023.45" x2="-90.5492" y2="992.758" gradientUnits="userSpaceOnUse">
<stop offset="0.0991019" stop-color="#3F178D"/>
<stop offset="0.517579" stop-color="#1F005C"/>
</linearGradient>
<radialGradient id="paint1_radial_36_9467" cx="0" cy="0" r="1" gradientUnits="userSpaceOnUse" gradientTransform="translate(-90.5492 991.59) rotate(90) scale(23.7496 60.1774)">
<stop offset="0.509615" stop-color="#472695"/>
<stop offset="1" stop-color="#8A63D6"/>
</radialGradient>
<linearGradient id="paint2_linear_36_9467" x1="-90.5492" y1="1023.45" x2="-90.5492" y2="992.758" gradientUnits="userSpaceOnUse">
<stop offset="0.0991019" stop-color="#3F178D"/>
<stop offset="0.517579" stop-color="#1F005C"/>
</linearGradient>
<radialGradient id="paint3_radial_36_9467" cx="0" cy="0" r="1" gradientUnits="userSpaceOnUse" gradientTransform="translate(-90.5492 991.59) rotate(90) scale(23.7496 60.1774)">
<stop offset="0.509615" stop-color="#472695"/>
<stop offset="1" stop-color="#8A63D6"/>
</radialGradient>
<linearGradient id="paint4_linear_36_9467" x1="-119.121" y1="406.227" x2="-119.121" y2="1005.69" gradientUnits="userSpaceOnUse">
<stop stop-color="#6441B1"/>
<stop offset="0.5" stop-color="#FFBFE0"/>
<stop offset="1" stop-color="#6441B1"/>
</linearGradient>
<linearGradient id="paint5_linear_36_9467" x1="59.6414" y1="187.31" x2="59.6414" y2="1064" gradientUnits="userSpaceOnUse">
<stop stop-color="#8A63D6"/>
<stop offset="1" stop-color="#472695"/>
</linearGradient>
<linearGradient id="paint6_linear_36_9467" x1="-119.121" y1="406.227" x2="-119.121" y2="1005.69" gradientUnits="userSpaceOnUse">
<stop stop-color="#6441B1"/>
<stop offset="0.5" stop-color="#FFBFE0"/>
<stop offset="1" stop-color="#6441B1"/>
</linearGradient>
<linearGradient id="paint7_linear_36_9467" x1="-95.1004" y1="809.279" x2="-95.1004" y2="1014.9" gradientUnits="userSpaceOnUse">
<stop stop-color="#553D99"/>
<stop offset="1" stop-color="#2F1773"/>
</linearGradient>
<linearGradient id="paint8_linear_36_9467" x1="-107.237" y1="464.025" x2="-107.237" y2="614.402" gradientUnits="userSpaceOnUse">
<stop offset="0.292966" stop-color="#F9FFFF"/>
<stop offset="0.634915" stop-color="#FDCCFB"/>
</linearGradient>
<linearGradient id="paint9_linear_36_9467" x1="-118.615" y1="871.169" x2="-118.615" y2="1014.39" gradientUnits="userSpaceOnUse">
<stop offset="0.134615" stop-color="#806CD5"/>
<stop offset="0.932692" stop-color="#63BBD6"/>
</linearGradient>
<linearGradient id="paint10_linear_36_9467" x1="-90.5492" y1="1023.45" x2="-90.5492" y2="992.758" gradientUnits="userSpaceOnUse">
<stop offset="0.0991019" stop-color="#3F178D"/>
<stop offset="0.517579" stop-color="#1F005C"/>
</linearGradient>
<radialGradient id="paint11_radial_36_9467" cx="0" cy="0" r="1" gradientUnits="userSpaceOnUse" gradientTransform="translate(-90.5492 991.59) rotate(90) scale(23.7496 60.1774)">
<stop offset="0.509615" stop-color="#472695"/>
<stop offset="1" stop-color="#8A63D6"/>
</radialGradient>
<linearGradient id="paint12_linear_36_9467" x1="-90.5492" y1="1023.45" x2="-90.5492" y2="992.758" gradientUnits="userSpaceOnUse">
<stop offset="0.0991019" stop-color="#3F178D"/>
<stop offset="0.517579" stop-color="#1F005C"/>
</linearGradient>
<radialGradient id="paint13_radial_36_9467" cx="0" cy="0" r="1" gradientUnits="userSpaceOnUse" gradientTransform="translate(-90.5492 991.59) rotate(90) scale(23.7496 60.1774)">
<stop offset="0.509615" stop-color="#472695"/>
<stop offset="1" stop-color="#8A63D6"/>
</radialGradient>
<linearGradient id="paint14_linear_36_9467" x1="-119.121" y1="406.227" x2="-119.121" y2="1005.69" gradientUnits="userSpaceOnUse">
<stop stop-color="#6441B1"/>
<stop offset="0.5" stop-color="#FFBFE0"/>
<stop offset="1" stop-color="#6441B1"/>
</linearGradient>
<linearGradient id="paint15_linear_36_9467" x1="59.6414" y1="187.31" x2="59.6414" y2="1064" gradientUnits="userSpaceOnUse">
<stop stop-color="#8A63D6"/>
<stop offset="1" stop-color="#472695"/>
</linearGradient>
<linearGradient id="paint16_linear_36_9467" x1="-119.121" y1="406.227" x2="-119.121" y2="1005.69" gradientUnits="userSpaceOnUse">
<stop stop-color="#6441B1"/>
<stop offset="0.5" stop-color="#FFBFE0"/>
<stop offset="1" stop-color="#6441B1"/>
</linearGradient>
<linearGradient id="paint17_linear_36_9467" x1="-95.1004" y1="809.279" x2="-95.1004" y2="1014.9" gradientUnits="userSpaceOnUse">
<stop stop-color="#553D99"/>
<stop offset="1" stop-color="#2F1773"/>
</linearGradient>
<linearGradient id="paint18_linear_36_9467" x1="-107.237" y1="464.025" x2="-107.237" y2="614.402" gradientUnits="userSpaceOnUse">
<stop offset="0.292966" stop-color="#F9FFFF"/>
<stop offset="0.634915" stop-color="#FDCCFB"/>
</linearGradient>
<linearGradient id="paint19_linear_36_9467" x1="-118.615" y1="871.169" x2="-118.615" y2="1014.39" gradientUnits="userSpaceOnUse">
<stop offset="0.134615" stop-color="#806CD5"/>
<stop offset="0.932692" stop-color="#63BBD6"/>
</linearGradient>
<linearGradient id="paint20_linear_36_9467" x1="-90.5492" y1="1023.45" x2="-90.5492" y2="992.758" gradientUnits="userSpaceOnUse">
<stop offset="0.0991019" stop-color="#3F178D"/>
<stop offset="0.517579" stop-color="#1F005C"/>
</linearGradient>
<radialGradient id="paint21_radial_36_9467" cx="0" cy="0" r="1" gradientUnits="userSpaceOnUse" gradientTransform="translate(-90.5492 991.59) rotate(90) scale(23.7496 60.1774)">
<stop offset="0.509615" stop-color="#472695"/>
<stop offset="1" stop-color="#8A63D6"/>
</radialGradient>
<linearGradient id="paint22_linear_36_9467" x1="-90.5492" y1="1023.45" x2="-90.5492" y2="992.758" gradientUnits="userSpaceOnUse">
<stop offset="0.0991019" stop-color="#3F178D"/>
<stop offset="0.517579" stop-color="#1F005C"/>
</linearGradient>
<radialGradient id="paint23_radial_36_9467" cx="0" cy="0" r="1" gradientUnits="userSpaceOnUse" gradientTransform="translate(-90.5492 991.59) rotate(90) scale(23.7496 60.1774)">
<stop offset="0.509615" stop-color="#472695"/>
<stop offset="1" stop-color="#8A63D6"/>
</radialGradient>
<linearGradient id="paint24_linear_36_9467" x1="-119.121" y1="406.227" x2="-119.121" y2="1005.69" gradientUnits="userSpaceOnUse">
<stop stop-color="#6441B1"/>
<stop offset="0.5" stop-color="#FFBFE0"/>
<stop offset="1" stop-color="#6441B1"/>
</linearGradient>
<linearGradient id="paint25_linear_36_9467" x1="59.6414" y1="187.31" x2="59.6414" y2="1064" gradientUnits="userSpaceOnUse">
<stop stop-color="#8A63D6"/>
<stop offset="1" stop-color="#472695"/>
</linearGradient>
<linearGradient id="paint26_linear_36_9467" x1="-119.121" y1="406.227" x2="-119.121" y2="1005.69" gradientUnits="userSpaceOnUse">
<stop stop-color="#6441B1"/>
<stop offset="0.5" stop-color="#FFBFE0"/>
<stop offset="1" stop-color="#6441B1"/>
</linearGradient>
<linearGradient id="paint27_linear_36_9467" x1="-95.1004" y1="809.279" x2="-95.1004" y2="1014.9" gradientUnits="userSpaceOnUse">
<stop stop-color="#553D99"/>
<stop offset="1" stop-color="#2F1773"/>
</linearGradient>
<linearGradient id="paint28_linear_36_9467" x1="-107.237" y1="464.025" x2="-107.237" y2="614.402" gradientUnits="userSpaceOnUse">
<stop offset="0.292966" stop-color="#F9FFFF"/>
<stop offset="0.634915" stop-color="#FDCCFB"/>
</linearGradient>
<linearGradient id="paint29_linear_36_9467" x1="-118.615" y1="871.169" x2="-118.615" y2="1014.39" gradientUnits="userSpaceOnUse">
<stop offset="0.134615" stop-color="#806CD5"/>
<stop offset="0.932692" stop-color="#63BBD6"/>
</linearGradient>
<linearGradient id="paint30_linear_36_9467" x1="-90.5492" y1="1023.45" x2="-90.5492" y2="992.758" gradientUnits="userSpaceOnUse">
<stop offset="0.0991019" stop-color="#3F178D"/>
<stop offset="0.517579" stop-color="#1F005C"/>
</linearGradient>
<radialGradient id="paint31_radial_36_9467" cx="0" cy="0" r="1" gradientUnits="userSpaceOnUse" gradientTransform="translate(-90.5492 991.59) rotate(90) scale(23.7496 60.1774)">
<stop offset="0.509615" stop-color="#472695"/>
<stop offset="1" stop-color="#8A63D6"/>
</radialGradient>
<linearGradient id="paint32_linear_36_9467" x1="-90.5492" y1="1023.45" x2="-90.5492" y2="992.758" gradientUnits="userSpaceOnUse">
<stop offset="0.0991019" stop-color="#3F178D"/>
<stop offset="0.517579" stop-color="#1F005C"/>
</linearGradient>
<radialGradient id="paint33_radial_36_9467" cx="0" cy="0" r="1" gradientUnits="userSpaceOnUse" gradientTransform="translate(-90.5492 991.59) rotate(90) scale(23.7496 60.1774)">
<stop offset="0.509615" stop-color="#472695"/>
<stop offset="1" stop-color="#8A63D6"/>
</radialGradient>
<linearGradient id="paint34_linear_36_9467" x1="-119.121" y1="406.227" x2="-119.121" y2="1005.69" gradientUnits="userSpaceOnUse">
<stop stop-color="#6441B1"/>
<stop offset="0.5" stop-color="#FFBFE0"/>
<stop offset="1" stop-color="#6441B1"/>
</linearGradient>
<linearGradient id="paint35_linear_36_9467" x1="59.6414" y1="187.31" x2="59.6414" y2="1064" gradientUnits="userSpaceOnUse">
<stop stop-color="#8A63D6"/>
<stop offset="1" stop-color="#472695"/>
</linearGradient>
<linearGradient id="paint36_linear_36_9467" x1="-119.121" y1="406.227" x2="-119.121" y2="1005.69" gradientUnits="userSpaceOnUse">
<stop stop-color="#6441B1"/>
<stop offset="0.5" stop-color="#FFBFE0"/>
<stop offset="1" stop-color="#6441B1"/>
</linearGradient>
<linearGradient id="paint37_linear_36_9467" x1="-95.1004" y1="809.279" x2="-95.1004" y2="1014.9" gradientUnits="userSpaceOnUse">
<stop stop-color="#553D99"/>
<stop offset="1" stop-color="#2F1773"/>
</linearGradient>
<linearGradient id="paint38_linear_36_9467" x1="-107.237" y1="464.025" x2="-107.237" y2="614.402" gradientUnits="userSpaceOnUse">
<stop offset="0.292966" stop-color="#F9FFFF"/>
<stop offset="0.634915" stop-color="#FDCCFB"/>
</linearGradient>
<linearGradient id="paint39_linear_36_9467" x1="-118.615" y1="871.169" x2="-118.615" y2="1014.39" gradientUnits="userSpaceOnUse">
<stop offset="0.134615" stop-color="#806CD5"/>
<stop offset="0.932692" stop-color="#63BBD6"/>
</linearGradient>
<linearGradient id="paint40_linear_36_9467" x1="209.832" y1="843.141" x2="209.832" y2="793.399" gradientUnits="userSpaceOnUse">
<stop offset="0.0991019" stop-color="#3F178D"/>
<stop offset="0.517579" stop-color="#1F005C"/>
</linearGradient>
<radialGradient id="paint41_radial_36_9467" cx="0" cy="0" r="1" gradientUnits="userSpaceOnUse" gradientTransform="translate(84.4507 38.4907) rotate(90) scale(38.4907 84.4507)">
<stop offset="0.509615" stop-color="#472695"/>
<stop offset="1" stop-color="#8A63D6"/>
</radialGradient>
<linearGradient id="paint42_linear_36_9467" x1="209.832" y1="808.625" x2="209.832" y2="777.933" gradientUnits="userSpaceOnUse">
<stop offset="0.0991019" stop-color="#3F178D"/>
<stop offset="0.517579" stop-color="#1F005C"/>
</linearGradient>
<radialGradient id="paint43_radial_36_9467" cx="0" cy="0" r="1" gradientUnits="userSpaceOnUse" gradientTransform="translate(60.1774 23.7496) rotate(90) scale(23.7496 60.1774)">
<stop offset="0.509615" stop-color="#472695"/>
<stop offset="1" stop-color="#8A63D6"/>
</radialGradient>
<linearGradient id="paint44_linear_36_9467" x1="227.784" y1="191.4" x2="227.784" y2="795.464" gradientUnits="userSpaceOnUse">
<stop stop-color="#8A63D6"/>
<stop offset="1" stop-color="#472695"/>
</linearGradient>
<linearGradient id="paint45_linear_36_9467" x1="181.26" y1="191.402" x2="181.26" y2="790.865" gradientUnits="userSpaceOnUse">
<stop stop-color="#6441B1"/>
<stop offset="0.5" stop-color="#FFBFE0"/>
<stop offset="1" stop-color="#6441B1"/>
</linearGradient>
<linearGradient id="paint46_linear_36_9467" x1="205.281" y1="594.454" x2="205.281" y2="800.072" gradientUnits="userSpaceOnUse">
<stop stop-color="#553D99"/>
<stop offset="1" stop-color="#2F1773"/>
</linearGradient>
<linearGradient id="paint47_linear_36_9467" x1="236.634" y1="188.333" x2="236.634" y2="394.462" gradientUnits="userSpaceOnUse">
<stop stop-color="#5938B4"/>
<stop offset="0.615385" stop-color="#65B4D6"/>
</linearGradient>
<linearGradient id="paint48_linear_36_9467" x1="193.144" y1="249.2" x2="193.144" y2="399.577" gradientUnits="userSpaceOnUse">
<stop offset="0.292966" stop-color="#F9FFFF"/>
<stop offset="0.634915" stop-color="#FDCCFB"/>
</linearGradient>
<linearGradient id="paint49_linear_36_9467" x1="181.766" y1="656.344" x2="181.766" y2="799.561" gradientUnits="userSpaceOnUse">
<stop offset="0.134615" stop-color="#806CD5"/>
<stop offset="0.932692" stop-color="#63BBD6"/>
</linearGradient>
<linearGradient id="paint50_linear_36_9467" x1="222.727" y1="400.086" x2="222.727" y2="645.6" gradientUnits="userSpaceOnUse">
<stop stop-color="#87DBFF"/>
<stop offset="1" stop-color="#FFBFE0"/>
</linearGradient>
<linearGradient id="paint51_linear_36_9467" x1="109.705" y1="914.75" x2="109.705" y2="865.007" gradientUnits="userSpaceOnUse">
<stop offset="0.0991019" stop-color="#3F178D"/>
<stop offset="0.517579" stop-color="#1F005C"/>
</linearGradient>
<radialGradient id="paint52_radial_36_9467" cx="0" cy="0" r="1" gradientUnits="userSpaceOnUse" gradientTransform="translate(84.4507 38.4907) rotate(90) scale(38.4907 84.4507)">
<stop offset="0.509615" stop-color="#472695"/>
<stop offset="1" stop-color="#8A63D6"/>
</radialGradient>
<linearGradient id="paint53_linear_36_9467" x1="109.705" y1="880.233" x2="109.705" y2="849.542" gradientUnits="userSpaceOnUse">
<stop offset="0.0991019" stop-color="#3F178D"/>
<stop offset="0.517579" stop-color="#1F005C"/>
</linearGradient>
<radialGradient id="paint54_radial_36_9467" cx="0" cy="0" r="1" gradientUnits="userSpaceOnUse" gradientTransform="translate(60.1774 23.7496) rotate(90) scale(23.7496 60.1774)">
<stop offset="0.509615" stop-color="#472695"/>
<stop offset="1" stop-color="#8A63D6"/>
</radialGradient>
<linearGradient id="paint55_linear_36_9467" x1="127.657" y1="263.008" x2="127.657" y2="867.072" gradientUnits="userSpaceOnUse">
<stop stop-color="#8A63D6"/>
<stop offset="1" stop-color="#472695"/>
</linearGradient>
<linearGradient id="paint56_linear_36_9467" x1="81.1335" y1="263.01" x2="81.1335" y2="862.474" gradientUnits="userSpaceOnUse">
<stop stop-color="#6441B1"/>
<stop offset="0.5" stop-color="#FFBFE0"/>
<stop offset="1" stop-color="#6441B1"/>
</linearGradient>
<linearGradient id="paint57_linear_36_9467" x1="105.154" y1="666.062" x2="105.154" y2="871.68" gradientUnits="userSpaceOnUse">
<stop stop-color="#553D99"/>
<stop offset="1" stop-color="#2F1773"/>
</linearGradient>
<linearGradient id="paint58_linear_36_9467" x1="136.507" y1="259.941" x2="136.507" y2="466.071" gradientUnits="userSpaceOnUse">
<stop stop-color="#5938B4"/>
<stop offset="0.615385" stop-color="#65B4D6"/>
</linearGradient>
<linearGradient id="paint59_linear_36_9467" x1="93.0171" y1="320.808" x2="93.0171" y2="471.186" gradientUnits="userSpaceOnUse">
<stop offset="0.292966" stop-color="#F9FFFF"/>
<stop offset="0.634915" stop-color="#FDCCFB"/>
</linearGradient>
<linearGradient id="paint60_linear_36_9467" x1="81.6392" y1="727.953" x2="81.6392" y2="871.169" gradientUnits="userSpaceOnUse">
<stop offset="0.134615" stop-color="#806CD5"/>
<stop offset="0.932692" stop-color="#63BBD6"/>
</linearGradient>
<linearGradient id="paint61_linear_36_9467" x1="122.6" y1="471.694" x2="122.6" y2="717.208" gradientUnits="userSpaceOnUse">
<stop stop-color="#87DBFF"/>
<stop offset="1" stop-color="#FFBFE0"/>
</linearGradient>
<linearGradient id="paint62_linear_36_9467" x1="9.5779" y1="986.358" x2="9.5779" y2="936.616" gradientUnits="userSpaceOnUse">
<stop offset="0.0991019" stop-color="#3F178D"/>
<stop offset="0.517579" stop-color="#1F005C"/>
</linearGradient>
<radialGradient id="paint63_radial_36_9467" cx="0" cy="0" r="1" gradientUnits="userSpaceOnUse" gradientTransform="translate(84.4507 38.4907) rotate(90) scale(38.4907 84.4507)">
<stop offset="0.509615" stop-color="#472695"/>
<stop offset="1" stop-color="#8A63D6"/>
</radialGradient>
<linearGradient id="paint64_linear_36_9467" x1="9.57783" y1="951.842" x2="9.57783" y2="921.15" gradientUnits="userSpaceOnUse">
<stop offset="0.0991019" stop-color="#3F178D"/>
<stop offset="0.517579" stop-color="#1F005C"/>
</linearGradient>
<radialGradient id="paint65_radial_36_9467" cx="0" cy="0" r="1" gradientUnits="userSpaceOnUse" gradientTransform="translate(60.1774 23.7496) rotate(90) scale(23.7496 60.1774)">
<stop offset="0.509615" stop-color="#472695"/>
<stop offset="1" stop-color="#8A63D6"/>
</radialGradient>
<linearGradient id="paint66_linear_36_9467" x1="27.53" y1="334.616" x2="27.53" y2="938.681" gradientUnits="userSpaceOnUse">
<stop stop-color="#8A63D6"/>
<stop offset="1" stop-color="#472695"/>
</linearGradient>
<linearGradient id="paint67_linear_36_9467" x1="5.02686" y1="737.671" x2="5.02686" y2="943.289" gradientUnits="userSpaceOnUse">
<stop stop-color="#553D99"/>
<stop offset="1" stop-color="#2F1773"/>
</linearGradient>
<linearGradient id="paint68_linear_36_9467" x1="36.3797" y1="331.55" x2="36.3797" y2="537.679" gradientUnits="userSpaceOnUse">
<stop stop-color="#5938B4"/>
<stop offset="0.615385" stop-color="#65B4D6"/>
</linearGradient>
<linearGradient id="paint69_linear_36_9467" x1="22.4732" y1="543.303" x2="22.4732" y2="788.817" gradientUnits="userSpaceOnUse">
<stop stop-color="#87DBFF"/>
<stop offset="1" stop-color="#FFBFE0"/>
</linearGradient>
<linearGradient id="paint70_linear_36_9467" x1="351.907" y1="569.589" x2="-337.699" y2="714.855" gradientUnits="userSpaceOnUse">
<stop offset="0.158654" stop-color="#0E348D" stop-opacity="0"/>
<stop offset="1" stop-color="#040E27" stop-opacity="0.75"/>
</linearGradient>
<linearGradient id="paint71_linear_36_9467" x1="-106.731" y1="50.7401" x2="98.5002" y2="400.614" gradientUnits="userSpaceOnUse">
<stop offset="0.389423" stop-color="#051028"/>
<stop offset="1" stop-color="#4400AE"/>
</linearGradient>
<linearGradient id="paint72_linear_36_9467" x1="117.885" y1="323.17" x2="63.3961" y2="250.508" gradientUnits="userSpaceOnUse">
<stop stop-color="#1F005C"/>
<stop offset="0.900898" stop-color="#3F178D"/>
</linearGradient>
<linearGradient id="paint73_linear_36_9467" x1="117.885" y1="323.17" x2="63.3961" y2="250.508" gradientUnits="userSpaceOnUse">
<stop stop-color="#1F005C"/>
<stop offset="0.900898" stop-color="#3F178D"/>
</linearGradient>
<linearGradient id="paint74_linear_36_9467" x1="252.839" y1="751.403" x2="-41.1136" y2="750.794" gradientUnits="userSpaceOnUse">
<stop stop-color="#1F005C" stop-opacity="0"/>
<stop offset="0.487757" stop-color="#74327C"/>
<stop offset="0.900898" stop-color="#3F178D" stop-opacity="0"/>
</linearGradient>
<linearGradient id="paint75_linear_36_9467" x1="-4.83427" y1="235.387" x2="-4.83427" y2="370.931" gradientUnits="userSpaceOnUse">
<stop offset="0.0625" stop-color="#0CEBD9"/>
<stop offset="1" stop-color="#040F27"/>
</linearGradient>
</defs>
</svg>
